<svg width="104" height="67" viewBox="0 0 104 67" fill="none" xmlns="http://www.w3.org/2000/svg">
<path d="M103.5 35.5C103.5 50.0803 83.8849 67 54.7512 67C25.6175 67 2 52.9803 2 38.4C2 23.8197 25.6175 12 54.7512 12C83.8849 12 103.5 20.9197 103.5 35.5Z" fill="#B4963D" fill-opacity="0.83"/>
<path d="M104 31.088C104 48.2574 80.2461 58 51.5273 58C22.8085 58 0 48.2574 0 31.088C0 13.9186 23.2812 0 52 0C80.7188 0 104 13.9186 104 31.088Z" fill="#FFC107"/>
<path d="M34 32.5C34 38.299 49.4264 51 37 51C24.5736 51 6 38.299 6 32.5C6 26.701 24.5736 10.5 37 10.5C49.4264 10.5 34 26.701 34 32.5Z" fill="white" fill-opacity="0.33"/>
<path d="M54.61 8.7372C54.9816 8.01182 56.0184 8.01182 56.39 8.7372L62.6574 20.9707C62.8285 21.3046 63.1722 21.5147 63.5474 21.5147H82.4403C83.5129 21.5147 83.8329 22.974 82.8588 23.4229L68.4788 30.049C67.9624 30.287 67.748 30.9071 68.0073 31.4132L73.6489 42.425C74.082 43.2704 73.2031 44.1867 72.3404 43.7892L55.9185 36.2223C55.6529 36.0999 55.3471 36.0999 55.0815 36.2223L38.6596 43.7892C37.7969 44.1867 36.918 43.2704 37.3511 42.425L42.9927 31.4132C43.252 30.9071 43.0376 30.287 42.5212 30.049L28.1412 23.4229C27.1671 22.974 27.4871 21.5147 28.5597 21.5147H47.4526C47.8278 21.5147 48.1715 21.3046 48.3426 20.9707L54.61 8.7372Z" fill="#7D7230"/>
</svg>
