<svg width="104" height="67" viewBox="0 0 104 67" fill="none" xmlns="http://www.w3.org/2000/svg">
<path d="M103.5 35.5C103.5 50.0803 83.8849 67 54.7512 67C25.6175 67 2 52.9803 2 38.4C2 23.8197 25.6175 12 54.7512 12C83.8849 12 103.5 20.9197 103.5 35.5Z" fill="#CAC4C4"/>
<path d="M104 31.088C104 48.2574 80.2461 58 51.5273 58C22.8085 58 0 48.2574 0 31.088C0 13.9186 23.2812 0 52 0C80.7188 0 104 13.9186 104 31.088Z" fill="#D9D9D9"/>
<path d="M34 29C34 34.799 49.4264 47.5 37 47.5C24.5736 47.5 6 34.799 6 29C6 23.201 24.5736 7.00002 37 7.00002C49.4264 7.00002 34 23.201 34 29Z" fill="white" fill-opacity="0.33"/>
</svg>
